<?xml version="1.0" encoding="UTF-8" standalone="no"?>
<!-- Created with Inkscape (http://www.inkscape.org/) -->

<svg
   width="114.55525mm"
   height="140.65898mm"
   viewBox="0 0 114.55525 140.65898"
   version="1.1"
   id="svg1"
   inkscape:version="1.3 (0e150ed6c4, 2023-07-21)"
   sodipodi:docname="Forsvarets heraldiske våpen-Farge,CMYK.svg"
   xmlns:inkscape="http://www.inkscape.org/namespaces/inkscape"
   xmlns:sodipodi="http://sodipodi.sourceforge.net/DTD/sodipodi-0.dtd"
   xmlns="http://www.w3.org/2000/svg"
   xmlns:svg="http://www.w3.org/2000/svg">
  <sodipodi:namedview
     id="namedview1"
     pagecolor="#ffffff"
     bordercolor="#666666"
     borderopacity="1.0"
     inkscape:showpageshadow="2"
     inkscape:pageopacity="0.0"
     inkscape:pagecheckerboard="0"
     inkscape:deskcolor="#d1d1d1"
     inkscape:document-units="mm"
     inkscape:zoom="0.71446409"
     inkscape:cx="272.23202"
     inkscape:cy="239.34023"
     inkscape:window-width="1920"
     inkscape:window-height="991"
     inkscape:window-x="-9"
     inkscape:window-y="-9"
     inkscape:window-maximized="1"
     inkscape:current-layer="layer1" />
  <defs
     id="defs1">
    <clipPath
       clipPathUnits="userSpaceOnUse"
       id="clipPath4">
      <path
         d="M 0,841.89 H 595.275 V 0 H 0 Z"
         transform="translate(-301.87301,-590.17291)"
         id="path4" />
    </clipPath>
    <clipPath
       clipPathUnits="userSpaceOnUse"
       id="clipPath6">
      <path
         d="M 0,841.89 H 595.275 V 0 H 0 Z"
         transform="translate(-313.58791,-578.61521)"
         id="path6" />
    </clipPath>
    <clipPath
       clipPathUnits="userSpaceOnUse"
       id="clipPath8">
      <path
         d="M 0,841.89 H 595.275 V 0 H 0 Z"
         transform="translate(-294.3022,-538.91111)"
         id="path8" />
    </clipPath>
    <clipPath
       clipPathUnits="userSpaceOnUse"
       id="clipPath10">
      <path
         d="M 0,841.89 H 595.275 V 0 H 0 Z"
         transform="translate(-334.35161,-537.61912)"
         id="path10" />
    </clipPath>
    <clipPath
       clipPathUnits="userSpaceOnUse"
       id="clipPath12">
      <path
         d="M 0,841.89 H 595.275 V 0 H 0 Z"
         transform="translate(-221.43211,-533.90141)"
         id="path12" />
    </clipPath>
    <clipPath
       clipPathUnits="userSpaceOnUse"
       id="clipPath14">
      <path
         d="M 0,841.89 H 595.275 V 0 H 0 Z"
         transform="translate(-344.41021,-553.56641)"
         id="path14" />
    </clipPath>
    <clipPath
       clipPathUnits="userSpaceOnUse"
       id="clipPath16">
      <path
         d="M 0,841.89 H 595.275 V 0 H 0 Z"
         transform="translate(-376.14061,-491.39451)"
         id="path16" />
    </clipPath>
    <clipPath
       clipPathUnits="userSpaceOnUse"
       id="clipPath18">
      <path
         d="M 0,841.89 H 595.275 V 0 H 0 Z"
         transform="translate(-261.26121,-537.72952)"
         id="path18" />
    </clipPath>
    <clipPath
       clipPathUnits="userSpaceOnUse"
       id="clipPath20">
      <path
         d="M 0,841.89 H 595.275 V 0 H 0 Z"
         transform="translate(-254.1865,-517.93261)"
         id="path20" />
    </clipPath>
    <clipPath
       clipPathUnits="userSpaceOnUse"
       id="clipPath22">
      <path
         d="M 0,841.89 H 595.275 V 0 H 0 Z"
         transform="translate(-294.3667,-523.54391)"
         id="path22" />
    </clipPath>
    <clipPath
       clipPathUnits="userSpaceOnUse"
       id="clipPath24">
      <path
         d="M 0,841.89 H 595.275 V 0 H 0 Z"
         transform="translate(-333.52341,-523.26461)"
         id="path24" />
    </clipPath>
    <clipPath
       clipPathUnits="userSpaceOnUse"
       id="clipPath26">
      <path
         d="M 0,841.89 H 595.275 V 0 H 0 Z"
         transform="translate(-373.36911,-516.58981)"
         id="path26" />
    </clipPath>
    <clipPath
       clipPathUnits="userSpaceOnUse"
       id="clipPath28">
      <path
         d="M 0,841.89 H 595.275 V 0 H 0 Z"
         transform="translate(-373.36911,-516.58981)"
         id="path28" />
    </clipPath>
    <clipPath
       clipPathUnits="userSpaceOnUse"
       id="clipPath30">
      <path
         d="M 0,841.89 H 595.275 V 0 H 0 Z"
         transform="translate(-376.07811,-491.51861)"
         id="path30" />
    </clipPath>
    <clipPath
       clipPathUnits="userSpaceOnUse"
       id="clipPath32">
      <path
         d="M 0,841.89 H 595.275 V 0 H 0 Z"
         transform="translate(-363.86821,-283.252)"
         id="path32" />
    </clipPath>
    <clipPath
       clipPathUnits="userSpaceOnUse"
       id="clipPath34">
      <path
         d="M 0,841.89 H 595.275 V 0 H 0 Z"
         transform="translate(-352.14361,-294.98341)"
         id="path34" />
    </clipPath>
    <clipPath
       clipPathUnits="userSpaceOnUse"
       id="clipPath36">
      <path
         d="M 0,841.89 H 595.275 V 0 H 0 Z"
         transform="translate(-230.58981,-283.252)"
         id="path36" />
    </clipPath>
    <clipPath
       clipPathUnits="userSpaceOnUse"
       id="clipPath38">
      <path
         d="M 0,841.89 H 595.275 V 0 H 0 Z"
         transform="translate(-243.0259,-295.69531)"
         id="path38" />
    </clipPath>
    <clipPath
       clipPathUnits="userSpaceOnUse"
       id="clipPath40">
      <path
         d="M 0,841.89 H 595.275 V 0 H 0 Z"
         transform="translate(-219.8647,-491.53521)"
         id="path40" />
    </clipPath>
    <clipPath
       clipPathUnits="userSpaceOnUse"
       id="clipPath42">
      <path
         d="M 0,841.89 H 595.275 V 0 H 0 Z"
         transform="translate(-192.83541,-491.51561)"
         id="path42" />
    </clipPath>
    <clipPath
       clipPathUnits="userSpaceOnUse"
       id="clipPath44">
      <path
         d="M 0,841.89 H 595.275 V 0 H 0 Z"
         transform="translate(-243.55131,-466.94531)"
         id="path44" />
    </clipPath>
    <clipPath
       clipPathUnits="userSpaceOnUse"
       id="clipPath46">
      <path
         d="M 0,841.89 H 595.275 V 0 H 0 Z"
         transform="translate(-298.2661,-456.42091)"
         id="path46" />
    </clipPath>
    <clipPath
       clipPathUnits="userSpaceOnUse"
       id="clipPath48">
      <path
         d="M 0,841.89 H 595.275 V 0 H 0 Z"
         transform="translate(-300.93071,-456.17381)"
         id="path48" />
    </clipPath>
    <clipPath
       clipPathUnits="userSpaceOnUse"
       id="clipPath50">
      <path
         d="M 0,841.89 H 595.275 V 0 H 0 Z"
         transform="translate(-300.93071,-456.17381)"
         id="path50" />
    </clipPath>
    <clipPath
       clipPathUnits="userSpaceOnUse"
       id="clipPath52">
      <path
         d="M 0,841.89 H 595.275 V 0 H 0 Z"
         transform="translate(-294.82371,-433.66411)"
         id="path52" />
    </clipPath>
    <clipPath
       clipPathUnits="userSpaceOnUse"
       id="clipPath54">
      <path
         d="M 0,841.89 H 595.275 V 0 H 0 Z"
         transform="translate(-243.7441,-378.79591)"
         id="path54" />
    </clipPath>
    <clipPath
       clipPathUnits="userSpaceOnUse"
       id="clipPath56">
      <path
         d="M 0,841.89 H 595.275 V 0 H 0 Z"
         transform="translate(-302.05661,-472.12791)"
         id="path56" />
    </clipPath>
    <clipPath
       clipPathUnits="userSpaceOnUse"
       id="clipPath58">
      <path
         d="M 0,841.89 H 595.275 V 0 H 0 Z"
         transform="translate(-247.00201,-457.52251)"
         id="path58" />
    </clipPath>
    <clipPath
       clipPathUnits="userSpaceOnUse"
       id="clipPath2">
      <path
         d="M 0,841.89 H 595.275 V 0 H 0 Z"
         transform="matrix(1.3333333,0,0,-1.3333333,0,1122.52)"
         id="path2" />
    </clipPath>
  </defs>
  <g
     inkscape:label="Lag 1"
     inkscape:groupmode="layer"
     id="layer1"
     transform="translate(-32.808332,-85.195833)">
    <g
       id="group-MC0"
       transform="matrix(0.26458333,0,0,0.26458333,-15.018843,7.0257113)">
      <g
         opacity="0.5"
         id="g2"
         clip-path="url(#clipPath2)" />
    </g>
    <g
       id="group-MC1"
       transform="matrix(0.26458333,0,0,0.26458333,-15.018843,7.0257113)">
      <path
         id="path3"
         d="m 0,0 c 7.098,-1.85 12.235,-8.064 12.235,-15.605 0,-8.881 -7.227,-16.081 -16.142,-16.081 -8.916,0 -16.145,7.2 -16.145,16.081 0,7.553 5.333,13.953 12.276,15.616 0,1.663 -0.002,12.615 -0.002,12.615 H -16.7 v 7.541 h 8.922 v 9.472 H 0.009 V 20.167 H 8.93 v -7.541 l -8.936,0.003 C -0.006,11.571 0.001,0.424 0,0"
         style="fill:#fcd405;fill-opacity:1;fill-rule:nonzero;stroke:#ee263a;stroke-width:0.987;stroke-linecap:butt;stroke-linejoin:miter;stroke-miterlimit:4;stroke-dasharray:none;stroke-opacity:1"
         transform="matrix(1.3333333,0,0,-1.3333333,402.49733,335.6228)"
         clip-path="url(#clipPath4)" />
      <path
         id="path5"
         d="m 0,0 c 0,0 0.591,-2.228 0.521,-4.072 0.055,-1.539 -0.44,-3.72 -0.44,-3.72 l -31.407,-0.001 c 0,0 -0.49,2.191 -0.439,3.721 -0.082,1.798 0.523,4.072 0.523,4.072 h 11.747 v 11.554 c 0,0 2.536,0.465 3.869,0.465 1.345,0 3.907,-0.475 3.907,-0.475 V 0 Z"
         style="fill:#fcd405;fill-opacity:1;fill-rule:nonzero;stroke:#ee263a;stroke-width:0.987;stroke-linecap:butt;stroke-linejoin:miter;stroke-miterlimit:4;stroke-dasharray:none;stroke-opacity:1"
         transform="matrix(1.3333333,0,0,-1.3333333,418.1172,351.03307)"
         clip-path="url(#clipPath6)" />
      <path
         id="path7"
         d="M 0,0 C 2.304,0.674 5.056,0.706 7.38,0.031 L 8.675,20.349 8.418,20.285 c 0,0 -1.881,-0.689 -4.729,-0.689 -2.086,-0.108 -4.282,0.539 -4.867,0.728 -0.095,0.032 -0.179,0.051 -0.179,0.051 z"
         style="fill:#fcd405;fill-opacity:1;fill-rule:nonzero;stroke:#ee263a;stroke-width:0.987;stroke-linecap:butt;stroke-linejoin:miter;stroke-miterlimit:4;stroke-dasharray:none;stroke-opacity:1"
         transform="matrix(1.3333333,0,0,-1.3333333,392.40293,403.97187)"
         clip-path="url(#clipPath8)" />
      <path
         id="path9"
         d="m 0,0 c 2.373,0.692 5.206,0.621 7.469,-0.219 3.698,24.933 10.82,28.432 -38.843,21.811 l -0.337,-5.298 C 6.351,21.063 2.54,19.67 0,0"
         style="fill:#fcd405;fill-opacity:1;fill-rule:nonzero;stroke:#ee263a;stroke-width:0.987;stroke-linecap:butt;stroke-linejoin:miter;stroke-miterlimit:4;stroke-dasharray:none;stroke-opacity:1"
         transform="matrix(1.3333333,0,0,-1.3333333,445.80213,405.69453)"
         clip-path="url(#clipPath10)" />
      <path
         id="path11"
         d="m 0,0 c -5.084,20.495 -4.269,19.665 29.766,19.665 -0.1,2.78 0.335,4.805 1.691,6.191 C -12.045,25.229 -15.006,26.398 -8.132,0.493 -5.083,1.184 -2.127,1.004 0,0"
         style="fill:#fcd405;fill-opacity:1;fill-rule:nonzero;stroke:#ee263a;stroke-width:0.987;stroke-linecap:butt;stroke-linejoin:miter;stroke-miterlimit:4;stroke-dasharray:none;stroke-opacity:1"
         transform="matrix(1.3333333,0,0,-1.3333333,295.2428,410.65147)"
         clip-path="url(#clipPath12)" />
      <path
         id="path13"
         d="m 0,0 c 34.717,0 35.097,0.492 30.092,-19.664 2.12,1 5.063,1.181 8.101,0.498 C 44.376,4.664 45.075,6.19 -1.575,6.19 -0.184,4.801 0.179,2.767 0,0"
         style="fill:#fcd405;fill-opacity:1;fill-rule:nonzero;stroke:#ee263a;stroke-width:0.987;stroke-linecap:butt;stroke-linejoin:miter;stroke-miterlimit:4;stroke-dasharray:none;stroke-opacity:1"
         transform="matrix(1.3333333,0,0,-1.3333333,459.2136,384.43147)"
         clip-path="url(#clipPath14)" />
      <path
         id="path15"
         d="M 0,0 C 1.51,9.28 8.118,36.045 10.234,41.716 1.001,46.055 -10.291,41.995 -1.838,30.759 l -0.933,-0.936 c -19.665,20.533 -19.665,-25.263 0,-4.628 0.385,-0.387 0.933,-0.934 0.933,-0.934 -1.646,-3.182 -6.592,-9.994 -7.676,-10.802 -5.334,-2.188 -12.342,-2.484 -18.486,0 -2.297,1.822 -6.384,9.665 -7.037,12.351 0,0 0.619,0.616 0.729,0.728 18.21,-18.21 18.21,23.543 0,5.332 0,0 -0.457,0.457 -0.729,0.731 18.795,18.795 -25.431,18.795 -6.855,0 -0.273,-0.274 -0.725,-0.731 -0.725,-0.731 -18.211,18.211 -18.211,-23.542 0,-5.332 0.11,-0.112 0.554,-0.553 0.725,-0.728 -0.651,-2.686 -4.738,-10.529 -7.032,-12.351 -6.455,-2.039 -12.07,-2.132 -18.481,0 -2.947,2.208 -7.119,10.756 -7.861,13.238 0.174,0.175 0.637,0.637 0.849,0.849 19.136,-21.364 19.136,25.969 0,4.603 l -0.849,0.848 c 21.762,20.066 -27.423,20.066 -5.658,0 l -0.85,-0.848 c -19.14,21.366 -19.14,-25.967 0,-4.603 0.215,-0.212 0.676,-0.674 0.85,-0.849 -0.743,-2.482 -4.914,-11.03 -7.863,-13.238 -5.71,-2.039 -11.681,-2.299 -17.66,0 -2.293,1.822 -7.273,9.665 -7.926,12.351 0.179,0.175 0.62,0.616 0.73,0.728 18.209,-18.21 18.209,23.543 0,5.332 0,0 -0.455,0.457 -0.73,0.731 18.577,18.795 -25.646,18.795 -6.851,0 -0.275,-0.274 -0.73,-0.731 -0.73,-0.731 -18.211,18.211 -18.211,-23.542 0,-5.332 0.111,-0.112 0.552,-0.553 0.73,-0.728 -0.654,-2.686 -4.742,-10.529 -7.038,-12.351 -5.915,-2.484 -13.96,-2.188 -18.577,0 -1.085,0.808 -6.029,7.62 -7.678,10.802 0,0 0.549,0.547 0.936,0.934 19.664,-20.635 19.664,25.161 0,4.628 l -0.936,0.936 c 8.457,11.236 -2.835,15.296 -12.068,10.957 2.112,-5.671 8.724,-32.436 10.233,-41.718 z"
         style="fill:#fcd405;fill-opacity:1;fill-rule:nonzero;stroke:#ee263a;stroke-width:0.987;stroke-linecap:butt;stroke-linejoin:miter;stroke-miterlimit:4;stroke-dasharray:none;stroke-opacity:1"
         transform="matrix(1.3333333,0,0,-1.3333333,501.5208,467.32733)"
         clip-path="url(#clipPath16)" />
      <path
         id="path17"
         d="m 0,0 c -2.779,20.479 -5.552,20.526 32.032,16.258 -0.101,2.194 -0.347,5.267 -0.347,5.267 C -16.301,27.728 -11.91,25.818 -7.559,-0.529 -5.349,0.442 -2.465,0.618 0,0"
         style="fill:#fcd405;fill-opacity:1;fill-rule:nonzero;stroke:#ee263a;stroke-width:0.987;stroke-linecap:butt;stroke-linejoin:miter;stroke-miterlimit:4;stroke-dasharray:none;stroke-opacity:1"
         transform="matrix(1.3333333,0,0,-1.3333333,348.34827,405.54733)"
         clip-path="url(#clipPath18)" />
      <path
         id="path19"
         d="m 0,0 c -18.21,-18.21 -18.21,23.543 0,5.332 0,0 0.455,0.457 0.73,0.73 -7.035,7.036 -5.24,11.437 -1.214,13.206 -0.082,0.486 -0.856,4.949 -1.007,5.793 -10.771,-2.485 -20.379,-6.525 -28.145,-13.034 -0.004,0.032 -0.014,0.06 -0.018,0.089 0.322,-2.016 -0.47,-4.657 -2.909,-7.895 l 0.936,-0.936 c 19.664,20.533 19.664,-25.264 0,-4.628 -0.387,-0.387 -0.936,-0.934 -0.936,-0.934 1.649,-3.182 6.593,-9.994 7.678,-10.802 4.617,-2.188 12.662,-2.484 18.577,0 2.296,1.822 6.384,9.665 7.038,12.35 C 0.552,-0.553 0.111,-0.112 0,0"
         style="fill:#ee263a;fill-opacity:1;fill-rule:nonzero;stroke:#ee263a;stroke-width:0.987;stroke-linecap:butt;stroke-linejoin:miter;stroke-miterlimit:4;stroke-dasharray:none;stroke-opacity:1"
         transform="matrix(1.3333333,0,0,-1.3333333,338.91533,431.9432)"
         clip-path="url(#clipPath20)" />
      <path
         id="path21"
         d="m 0,0 0.85,0.848 c -8.84,8.149 -5.977,12.989 -0.914,14.519 -0.004,0.006 -0.533,7.863 -0.533,7.863 -11.665,-0.092 -23.003,-0.618 -33.47,-2.305 10e-4,-0.006 10e-4,-0.013 0.003,-0.019 0.134,-0.979 0.871,-6.087 0.959,-6.72 5.031,-1.262 8.308,-5.84 0.506,-13.735 0.275,-0.273 0.73,-0.73 0.73,-0.73 18.209,18.211 18.209,-23.542 0,-5.332 -0.11,-0.113 -0.551,-0.553 -0.73,-0.729 0.653,-2.685 5.633,-10.528 7.926,-12.35 5.979,-2.299 11.95,-2.039 17.66,0 2.949,2.208 7.12,10.755 7.863,13.238 C 0.676,-5.277 0.215,-4.815 0,-4.604 -19.14,-25.968 -19.14,21.365 0,0"
         style="fill:#ee263a;fill-opacity:1;fill-rule:nonzero;stroke:#ee263a;stroke-width:0.987;stroke-linecap:butt;stroke-linejoin:miter;stroke-miterlimit:4;stroke-dasharray:none;stroke-opacity:1"
         transform="matrix(1.3333333,0,0,-1.3333333,392.48893,424.46147)"
         clip-path="url(#clipPath22)" />
      <path
         id="path23"
         d="m 0,0 c 0,0 0.452,0.457 0.726,0.73 -7.588,7.68 -4.694,12.22 0.102,13.624 0.334,2.584 0.69,4.85 0.969,6.831 -9.421,1.441 -20.403,2.185 -33.14,2.319 0,0 -0.499,-7.828 -0.501,-7.829 5.126,-1.493 8.096,-6.342 -0.804,-14.548 L -31.8,0.279 c 19.136,21.366 19.136,-25.967 0,-4.603 -0.212,-0.212 -0.675,-0.674 -0.848,-0.849 0.741,-2.482 4.914,-11.03 7.86,-13.238 6.411,-2.132 12.026,-2.039 18.481,0 2.294,1.822 6.381,9.665 7.033,12.35 C 0.554,-5.885 0.11,-5.444 0,-5.332 -18.211,-23.542 -18.211,18.211 0,0"
         style="fill:#ee263a;fill-opacity:1;fill-rule:nonzero;stroke:#ee263a;stroke-width:0.987;stroke-linecap:butt;stroke-linejoin:miter;stroke-miterlimit:4;stroke-dasharray:none;stroke-opacity:1"
         transform="matrix(1.3333333,0,0,-1.3333333,444.69787,424.83387)"
         clip-path="url(#clipPath24)" />
      <path
         id="path25"
         d="m 0,0 c -19.664,-20.636 -19.664,25.161 0,4.628 l 0.934,0.935 c -2.376,3.162 -3.194,5.755 -2.932,7.752 -6.622,6.191 -15.969,10.482 -28.608,13.191 -0.315,-1.76 -0.641,-3.654 -0.943,-5.694 4.364,-1.62 6.602,-6.087 -0.717,-13.407 0.273,-0.273 0.73,-0.73 0.73,-0.73 18.21,18.211 18.21,-23.542 0,-5.332 -0.11,-0.113 -0.73,-0.729 -0.73,-0.729 0.654,-2.685 4.741,-10.528 7.037,-12.35 6.144,-2.485 13.153,-2.188 18.487,0 1.084,0.807 6.029,7.62 7.676,10.801 0,0 -0.548,0.547 -0.934,0.935"
         style="fill:#ee263a;fill-opacity:1;fill-rule:nonzero;stroke:none"
         transform="matrix(1.3333333,0,0,-1.3333333,497.82547,433.7336)"
         clip-path="url(#clipPath26)" />
      <path
         id="path27"
         d="m 0,0 c -19.664,-20.636 -19.664,25.161 0,4.628 l 0.934,0.935 c -2.376,3.162 -3.194,5.755 -2.932,7.752 -6.622,6.191 -15.969,10.482 -28.608,13.191 -0.315,-1.76 -0.641,-3.654 -0.943,-5.694 4.364,-1.62 6.602,-6.087 -0.717,-13.407 0.273,-0.273 0.73,-0.73 0.73,-0.73 18.21,18.211 18.21,-23.542 0,-5.332 -0.11,-0.113 -0.73,-0.729 -0.73,-0.729 0.654,-2.685 4.741,-10.528 7.037,-12.35 6.144,-2.485 13.153,-2.188 18.487,0 1.084,0.807 6.029,7.62 7.676,10.801 0,0 -0.548,0.547 -0.934,0.935 z"
         style="fill:none;stroke:#ee263a;stroke-width:0.987;stroke-linecap:butt;stroke-linejoin:miter;stroke-miterlimit:4;stroke-dasharray:none;stroke-opacity:1"
         transform="matrix(1.3333333,0,0,-1.3333333,497.82547,433.7336)"
         clip-path="url(#clipPath28)" />
      <path
         id="path29"
         d="M 0,0 H 27.009 C 26.955,-10.17 26.795,-24.693 26.321,-36.502 55.979,-1.542 77.078,40.214 83.134,52.282 71.26,46.647 35.289,28.722 0,0"
         style="fill:#fcd405;fill-opacity:1;fill-rule:nonzero;stroke:#231f20;stroke-width:0.987;stroke-linecap:butt;stroke-linejoin:miter;stroke-miterlimit:4;stroke-dasharray:none;stroke-opacity:1"
         transform="matrix(1.3333333,0,0,-1.3333333,501.43747,467.16187)"
         clip-path="url(#clipPath30)" />
      <path
         id="path31"
         d="m 0,0 c -7.806,-7.05 -15.64,-13.628 -23.804,-20.049 l 8.806,-8.805 c 9.93,12.628 20.614,24.844 32.053,36.589 l 52.487,-52.484 c -1.332,-4.373 -0.293,-9.222 3.159,-12.68 4.991,-4.994 13.091,-4.994 18.081,0 4.989,4.992 4.989,13.083 0,18.077 -3.41,3.413 -8.273,4.491 -12.6,3.24 L 25.666,16.348 C 37.395,27.77 49.589,38.441 62.197,48.36 l -8.789,8.782 C 46.99,48.99 40.351,41.095 33.304,33.3"
         style="fill:#fcd405;fill-opacity:1;fill-rule:nonzero;stroke:#231f20;stroke-width:0.987;stroke-linecap:butt;stroke-linejoin:miter;stroke-miterlimit:4;stroke-dasharray:none;stroke-opacity:1"
         transform="matrix(1.3333333,0,0,-1.3333333,485.1576,744.85067)"
         clip-path="url(#clipPath32)" />
      <path
         id="path33"
         d="m 0,0 c 0.342,-0.342 11.725,-11.731 11.725,-11.731 0,0 11.584,10.746 17.135,16.296 5.526,5.531 16.168,17.003 16.168,17.003 0,0 -17.96,17.973 -19.184,19.189 C 19.709,27.454 10.254,12.448 0,0"
         style="fill:#fcd405;fill-opacity:1;fill-rule:nonzero;stroke:#231f20;stroke-width:0.987;stroke-linecap:butt;stroke-linejoin:miter;stroke-miterlimit:4;stroke-dasharray:none;stroke-opacity:1"
         transform="matrix(1.3333333,0,0,-1.3333333,469.5248,729.2088)"
         clip-path="url(#clipPath34)" />
      <path
         id="path35"
         d="m 0,0 c 7.802,-7.05 15.636,-13.628 23.799,-20.049 l -8.801,-8.805 C 5.064,-16.226 -5.62,-4.01 -17.057,7.735 l -52.487,-52.486 c 1.327,-4.371 0.292,-9.22 -3.165,-12.678 -4.988,-4.994 -13.08,-4.994 -18.073,0 -4.991,4.992 -4.994,13.083 0,18.077 3.408,3.413 8.268,4.491 12.598,3.24 l 52.515,52.46 C -37.394,27.77 -49.588,38.441 -62.197,48.36 l 8.786,8.782 C -46.992,48.99 -40.354,41.095 -33.307,33.3"
         style="fill:#fcd405;fill-opacity:1;fill-rule:nonzero;stroke:#231f20;stroke-width:0.987;stroke-linecap:butt;stroke-linejoin:miter;stroke-miterlimit:4;stroke-dasharray:none;stroke-opacity:1"
         transform="matrix(1.3333333,0,0,-1.3333333,307.45307,744.85067)"
         clip-path="url(#clipPath36)" />
      <path
         id="path37"
         d="m 0,0 c -1.861,-1.863 -12.436,-12.443 -12.436,-12.443 0,0 -11.587,10.746 -17.132,16.297 -5.535,5.53 -16.175,17.002 -16.175,17.002 0,0 16.661,16.657 20.059,20.019 C -19.585,27.44 -10.294,12.6 0,0"
         style="fill:#fcd405;fill-opacity:1;fill-rule:nonzero;stroke:#231f20;stroke-width:0.969;stroke-linecap:butt;stroke-linejoin:miter;stroke-miterlimit:4;stroke-dasharray:none;stroke-opacity:1"
         transform="matrix(1.3333333,0,0,-1.3333333,324.03453,728.2596)"
         clip-path="url(#clipPath38)" />
      <path
         id="path39"
         d="m 0,0 h -27.012 c 0.026,-12.511 0.199,-24.709 0.657,-36.487 C -55.988,-1.536 -77.108,40.198 -83.161,52.262 -71.282,46.627 -35.29,28.722 0,0"
         style="fill:#fcd405;fill-opacity:1;fill-rule:nonzero;stroke:#231f20;stroke-width:0.987;stroke-linecap:butt;stroke-linejoin:miter;stroke-miterlimit:4;stroke-dasharray:none;stroke-opacity:1"
         transform="matrix(1.3333333,0,0,-1.3333333,293.15293,467.13973)"
         clip-path="url(#clipPath40)" />
      <path
         id="path41"
         d="M 0,0 H 210.259 C 210.02,-103.125 199.127,-181.045 105.16,-244.909 10.711,-181.045 0.215,-103.378 0,0"
         style="fill:#ee263a;fill-opacity:1;fill-rule:nonzero;stroke:#ee263a;stroke-width:0.987;stroke-linecap:butt;stroke-linejoin:miter;stroke-miterlimit:4;stroke-dasharray:none;stroke-opacity:1"
         transform="matrix(1.3333333,0,0,-1.3333333,257.11387,467.16587)"
         clip-path="url(#clipPath42)" />
      <path
         id="path43"
         d="m 0,0 v 5.31 c -0.574,0.153 -4.529,0.143 -5.055,0 V 0.098 C -3.516,0.037 -1.843,0.011 0,0"
         style="fill:#fcd405;fill-opacity:1;fill-rule:nonzero;stroke:#ee263a;stroke-width:0.987;stroke-linecap:butt;stroke-linejoin:miter;stroke-miterlimit:4;stroke-dasharray:none;stroke-opacity:1"
         transform="matrix(1.3333333,0,0,-1.3333333,324.73507,499.92627)"
         clip-path="url(#clipPath44)" />
      <path
         id="path45"
         d="M 0,0 C -0.466,0.508 -1.772,1.883 -1.979,2.09 -10.766,2.418 -8.711,2.316 -11.29,3.82 -11.895,3.911 -12.478,2.574 -12.183,1.951 -10.025,0.205 -11.133,0.366 0,0"
         style="fill:#fcd405;fill-opacity:1;fill-rule:nonzero;stroke:none"
         transform="matrix(1.3333333,0,0,-1.3333333,397.68813,513.9588)"
         clip-path="url(#clipPath46)" />
      <path
         id="path47"
         d="m 0,0 c -0.23,0.182 -0.738,1.396 -0.948,2.14 0.372,0.1 7.685,-0.149 8.561,-0.243 0.132,-0.007 0.939,-2.2 0.939,-2.2 0,0 -7.817,0.129 -8.552,0.303 m 3.075,12.927 c 2.026,-0.392 8.4,-1.971 9.757,-2.452 0.3,-0.402 0.199,-0.301 0.236,-0.536 -0.505,0.502 -5.001,1.701 -6.373,1.86 C 7.218,11.474 7.522,10.739 7.467,10.3 7.354,9.467 6.367,9.028 5.141,9.189 3.91,9.358 3.178,10.018 3.292,10.84 3.36,11.402 3.973,12.033 4.672,12.183 4.073,12.361 3.193,12.581 3.193,12.581 2.467,12.25 0.809,10.855 0.609,10.855 c -0.196,0 -0.259,0.031 -0.259,0.283 0.214,0.252 2.343,1.594 2.725,1.789 M -2.398,7.918 C -2.802,7.515 -3.78,7.11 -4.245,7.11 -4.34,7.295 -4.462,7.489 -4.437,7.875 c 0.526,0.065 1.383,0.47 1.856,0.8 0.167,-0.354 0.206,-0.603 0.183,-0.757 M 28.13,7.139 C 28.466,5.195 27.647,5.104 25.909,3.076 v 0.346 c 0.747,0.983 2.322,1.698 1.869,3.555 -0.701,0.361 -1.266,1.169 -3.41,-0.2 -0.04,0.046 -0.04,-0.009 -0.146,0.187 0.873,0.444 1.788,1.357 3.908,0.175 M 48.691,-7.44 c -4.475,-5.607 -7.064,-11.595 -7.58,-12.988 0.223,-0.227 0.46,-0.416 0.871,-0.618 2.323,3.078 6.79,5.879 6.871,5.488 0.142,-0.538 -0.031,-2.826 -0.031,-3.406 -2.182,-4.572 -13.534,-17.316 -15.94,-26.323 0.201,-0.186 0.922,-0.441 1.319,-0.441 4.254,7.173 19.671,15.97 24.317,20.612 1.327,4.282 0.852,5.566 0,8.746 -0.102,0.338 0.726,0.209 1.054,-0.008 0.928,-2.24 2.882,-4.123 3.458,-10.588 0.61,0 1.036,0 1.311,0.279 0.566,1.056 2.063,9.489 2.063,12.56 -4.044,11.321 -2.717,7.936 -10.547,10.009 -2.796,17.829 31.167,16.707 24.543,-10.281 -3.06,-8.082 -5.816,-11.58 -26.442,-26.313 -37.053,-24.1 -12.069,-43.964 -3.703,-60.817 18.687,-26.935 -7.285,-40.526 -19.788,-21.692 -6.72,9.752 -15.4,35.646 -20.657,40.301 -0.581,1.294 0.143,37.889 0.143,40.248 1.017,-0.28 1.961,-1.017 3.364,-1.237 -0.616,9.306 15.471,24.435 14.155,44.669 1.079,1.587 3.164,2.919 3.33,6.108 0.361,2.498 -1.564,2.829 -3.78,2.976 -0.719,0 -24.942,5.772 -25.837,5.967 C 0.683,15.17 -5.148,10.489 -6.269,9.616 -3.9,1.446 -6.228,4.923 -2.146,0.429 -2.711,-0.862 -4.361,-2.627 -4.79,-4.032 -3.806,-4.287 5.63,-3.934 5.075,-4.479 3.887,-7.408 3.68,-7.7 0.935,-8.039 -9.463,-9.162 -16.021,-12.8 -29.056,-24.261 c -3.136,-2.379 -3.633,-17.348 -6.107,-22.567 1.73,-0.064 4.132,0.172 5.57,0 0.939,0 -13.378,-24.662 -14.983,-27.483 -0.47,-0.106 -2.004,0.639 -2.41,1.044 0,11.796 0.107,8.539 -2.914,14.171 -3.447,3.035 -2.504,3.392 -5.46,3.083 0.846,-2.192 2.064,-2.117 2.458,-5.79 -2.025,-1.795 -1.923,-2.951 -2.438,-4.087 0.111,-0.682 2.53,-4.623 2.944,-5.305 -0.068,-0.298 -0.568,-0.65 -0.814,-0.706 -0.45,0 -3.634,2.644 -4.169,3.29 v 47.194 c 0.376,-0.187 3.517,-2.109 4.187,-2.611 -2.345,-2.889 -2.37,-2.581 -0.894,-3.684 0.692,0 2.203,-0.108 3.088,-0.28 0.795,-0.096 15.163,-12.745 17.107,-14.201 0.471,1.239 1.814,11.134 2.934,14.872 -10.334,5.732 -14.437,6.477 -15.772,9.305 -1.882,0.765 -2.589,-0.426 -4.387,1.777 5.773,7.454 4.536,5.866 4.672,10.892 -0.565,1.681 0.112,5.194 -2.815,5.678 -0.454,-2.637 -0.551,-5.072 -1.259,-5.925 -1.405,-0.181 -2.894,-0.635 -3.795,-1.231 -0.462,-0.308 -1.295,-5.087 -1.395,-6.154 -0.081,-0.378 -1.118,0.466 -1.671,0.762 V 1.361 c -1.929,0.021 -3.591,0.056 -5.056,0.065 V -9.515 c -2.413,1.832 -4.469,1.219 -6.692,1.219 -5.054,-0.876 -4.501,0.199 -6.146,-3.142 3.738,0 3.809,0.321 6.313,-0.656 0.254,-3.043 0.877,-3.885 1.367,-5.063 1.605,-0.465 3.785,-0.717 5.158,-1.209 v -0.792 c -3.813,-1.701 -5.907,-0.873 -8.726,-6.215 -1.099,-2.152 -3.366,-4.368 -1.091,-7.424 1.107,1.305 1.311,3.054 4.507,5.039 4.863,-1.934 3.937,-1.299 5.31,-0.07 V -67.7 c -2.311,-0.34 -3.561,-0.103 -6.26,-1.158 -1.552,-0.415 -2.102,-0.026 -3.178,-2.632 0.975,-0.032 3.442,0.344 4.212,0.114 1.133,-0.46 2.43,0.055 2.178,-2.016 1.09,-4.009 1.418,-2.986 3.048,-3.5 v -6.565 c -2.933,-2.684 -2.569,-3.561 -4.164,-7.108 0,-0.539 0.513,-1.901 0.78,-2.162 0.668,0.197 2.382,3.471 3.384,3.335 v -12.359 c 0.628,-0.278 4.463,-0.168 5.056,0 0.358,0 0,11.655 0,13.241 2.428,-0.421 2.504,-1.185 4.169,0.79 2.018,2.382 2.565,3.424 4.379,6.282 4.901,-0.096 5.117,-0.669 5.391,-3.48 0.055,-1.593 0.424,-2.012 1.751,-2.012 l 32.726,40.576 c 0,0 0.11,-0.03 0.07,-0.128 0,0 -12.177,-15.12 -14.209,-17.581 0.342,-1.426 2.146,-5.546 3.546,-7.111 6.283,-5.473 6.258,-13.229 7.85,-18.244 0.254,-0.793 -8.072,-3.199 -9.352,-3.926 -8.78,-5.101 -7.685,-2.634 -10.319,-13.393 -2.253,-13.403 -2.859,-16.789 -1.572,-19.369 -3.619,0.447 -16.393,0.74 -18.348,1.541 0,0.816 -1.293,5.467 -1.657,6.28 5.588,5.934 4.528,3.545 5.125,11.296 -0.34,2.392 0.356,3.601 -2.833,5.682 0.085,-1.97 0.401,-3.941 -0.767,-5.975 -0.373,0.034 -2.852,0.157 -3.805,-0.244 -1.175,-1.473 -1.241,-5.589 -1.368,-6.51 -0.242,-0.102 -0.527,-0.14 -0.822,-0.14 -3.576,6.313 -5.63,7.344 -9.301,8.006 -4.532,0.455 -4.393,1.181 -6.295,-0.827 3.958,-1.105 3.906,-1.53 5.327,-2.701 -0.785,-1.876 -1.088,-1.058 -1.186,-3.083 0.338,-2.448 -0.725,-1.542 6.756,-3.71 0.121,-0.614 0.114,-0.684 0.005,-1.037 -7.297,-0.216 -6.802,0.439 -7.511,-3.956 -2.107,-0.306 -3.172,0.154 -5.13,0.588 0.866,-3.163 0.419,-2.185 5.546,-4.287 5.269,-0.728 4.517,-1.023 9.19,1.935 3.828,-5.955 2.135,-5.837 -0.825,-8.786 0.159,-0.642 0.605,-1.3 1.102,-1.499 8.166,0.868 12.058,-2.798 25.281,-4.684 6.366,-4.643 3.872,-3.893 14.253,0.228 -1.312,6.025 2.594,6.702 5.006,12.78 -2.478,2.479 -5.101,6.76 -6.027,9.027 -0.181,1.656 -1.654,8.532 -0.723,11.887 6.248,9.2 13.429,10.42 18.914,23.077 0.187,0 0.114,0.034 0.225,-0.077 -5.91,-12.994 -13.699,-14.677 -18.945,-23.126 -0.842,-2.124 0.052,-7.405 0.667,-11.666 4.9,-11.211 18.053,-18.73 21.155,-26.334 0.004,-0.05 0.042,-0.136 0.07,-0.236 0.78,-2.905 4.714,-25.253 2.16,-31.19 -1.424,-1.086 -3.861,-1.564 -4.133,-1.148 -1.251,0.525 -2.301,5.221 -3.706,7.969 -5.075,2.157 -7.787,5.271 -11.181,2.831 2.359,-1.519 4.32,-3.308 5.074,-4.599 -1.249,-1.42 -1.287,-3.152 -1.287,-4.599 0,-0.968 5.014,-3.463 6.725,-4.199 0.161,-0.073 -0.126,-0.777 -0.313,-0.956 -0.439,-0.444 -5.642,-0.74 -6.78,-1.311 -4.535,-3.962 -6.585,-5.498 -5.508,-8.957 0,0 2.821,3.01 4.97,3.628 1.083,-1.3 2.897,-2.327 4.434,-2.713 1.319,0 4.878,4.409 5.465,4.815 0,0 0.262,-0.039 0.79,-0.565 0,-0.838 -1.711,-5.015 -1.711,-6.529 0.309,-1.368 2.72,-8.848 5.573,-8.13 -0.189,0.988 -0.814,4.518 -0.476,5.837 6.336,3.181 3.001,4.288 1.627,9.499 6.169,5.364 6.082,1.712 9.834,-0.505 0.42,0 1.233,0.532 1.458,0.759 -0.813,6.249 1.543,23.234 1.376,28.452 -0.044,2.942 0.345,2.315 1.697,3.874 0.976,1.04 1.701,7.805 1.363,9.221 0,0.396 -2.345,2.22 -2.801,2.67 -0.343,0.354 -1.725,12.187 -1.968,14.932 -0.126,13.358 -1.227,26.494 -1.414,26.879 -0.044,0.303 -1.07,2.902 -1.347,3.615 -0.05,0.104 0.063,0.167 0.118,0.104 0,0 0.603,-1.433 1.405,-3.688 0.379,-2.978 0.723,-8.412 1.114,-14.466 8.223,-13.376 17.988,-30.127 35.857,-25.269 27.119,10.816 6.086,40.625 6.086,50.567 l 15.283,7.058 c 0,0 -0.227,0.898 -0.446,1.461 -7.739,-1.124 -10.577,3.173 -15.924,1.461 0,0 -0.068,0.67 -0.068,1.152 l 21.742,9.679 c 0,0 -0.33,1.116 -0.52,1.64 -7.546,-2.089 -11.099,3.071 -20.481,-0.403 l 0.188,1.225 c 0,0 18.949,8.562 25.188,11.662 0,0 -0.204,1.212 -0.603,1.608 -8.254,-2.131 -8.947,1.999 -18.232,0.129 9.76,12.442 24.939,23.411 25.615,39.849 0.753,28.16 -39.317,29.567 -37.682,1.868"
         style="fill:#fcd405;fill-opacity:1;fill-rule:nonzero;stroke:none"
         transform="matrix(1.3333333,0,0,-1.3333333,401.24093,514.28827)"
         clip-path="url(#clipPath48)" />
      <path
         id="path49"
         d="m 0,0 c -0.23,0.182 -0.738,1.396 -0.948,2.14 0.372,0.1 7.685,-0.149 8.561,-0.243 0.132,-0.007 0.939,-2.2 0.939,-2.2 0,0 -7.817,0.129 -8.552,0.303 z m 3.075,12.927 c 2.026,-0.392 8.4,-1.971 9.757,-2.452 0.3,-0.402 0.199,-0.301 0.236,-0.536 -0.505,0.502 -5.001,1.701 -6.373,1.86 C 7.218,11.474 7.522,10.739 7.467,10.3 7.354,9.467 6.367,9.028 5.141,9.189 3.91,9.358 3.178,10.018 3.292,10.84 3.36,11.402 3.973,12.033 4.672,12.183 4.073,12.361 3.193,12.581 3.193,12.581 2.467,12.25 0.809,10.855 0.609,10.855 c -0.196,0 -0.259,0.031 -0.259,0.283 0.214,0.252 2.343,1.594 2.725,1.789 z M -2.398,7.918 C -2.802,7.515 -3.78,7.11 -4.245,7.11 -4.34,7.295 -4.462,7.489 -4.437,7.875 c 0.526,0.065 1.383,0.47 1.856,0.8 0.167,-0.354 0.206,-0.603 0.183,-0.757 z M 28.13,7.139 C 28.466,5.195 27.647,5.104 25.909,3.076 v 0.346 c 0.747,0.983 2.322,1.698 1.869,3.555 -0.701,0.361 -1.266,1.169 -3.41,-0.2 -0.04,0.046 -0.04,-0.009 -0.146,0.187 0.873,0.444 1.788,1.357 3.908,0.175 z M 48.691,-7.44 c -4.475,-5.607 -7.064,-11.595 -7.58,-12.988 0.223,-0.227 0.46,-0.416 0.871,-0.618 2.323,3.078 6.79,5.879 6.871,5.488 0.142,-0.538 -0.031,-2.826 -0.031,-3.406 -2.182,-4.572 -13.534,-17.316 -15.94,-26.323 0.201,-0.186 0.922,-0.441 1.319,-0.441 4.254,7.173 19.671,15.97 24.317,20.612 1.327,4.282 0.852,5.566 0,8.746 -0.102,0.338 0.726,0.209 1.054,-0.008 0.928,-2.24 2.882,-4.123 3.458,-10.588 0.61,0 1.036,0 1.311,0.279 0.566,1.056 2.063,9.489 2.063,12.56 -4.044,11.321 -2.717,7.936 -10.547,10.009 -2.796,17.829 31.167,16.707 24.543,-10.281 -3.06,-8.082 -5.816,-11.58 -26.442,-26.313 -37.053,-24.1 -12.069,-43.964 -3.703,-60.817 18.687,-26.935 -7.285,-40.526 -19.788,-21.692 -6.72,9.752 -15.4,35.646 -20.657,40.301 -0.581,1.294 0.143,37.889 0.143,40.248 1.017,-0.28 1.961,-1.017 3.364,-1.237 -0.616,9.306 15.471,24.435 14.155,44.669 1.079,1.587 3.164,2.919 3.33,6.108 0.361,2.498 -1.564,2.829 -3.78,2.976 -0.719,0 -24.942,5.772 -25.837,5.967 C 0.683,15.17 -5.148,10.489 -6.269,9.616 -3.9,1.446 -6.228,4.923 -2.146,0.429 -2.711,-0.862 -4.361,-2.627 -4.79,-4.032 -3.806,-4.287 5.63,-3.934 5.075,-4.479 3.887,-7.408 3.68,-7.7 0.935,-8.039 -9.463,-9.162 -16.021,-12.8 -29.056,-24.261 c -3.136,-2.379 -3.633,-17.348 -6.107,-22.567 1.73,-0.064 4.132,0.172 5.57,0 0.939,0 -13.378,-24.662 -14.983,-27.483 -0.47,-0.106 -2.004,0.639 -2.41,1.044 0,11.796 0.107,8.539 -2.914,14.171 -3.447,3.035 -2.504,3.392 -5.46,3.083 0.846,-2.192 2.064,-2.117 2.458,-5.79 -2.025,-1.795 -1.923,-2.951 -2.438,-4.087 0.111,-0.682 2.53,-4.623 2.944,-5.305 -0.068,-0.298 -0.568,-0.65 -0.814,-0.706 -0.45,0 -3.634,2.644 -4.169,3.29 v 47.194 c 0.376,-0.187 3.517,-2.109 4.187,-2.611 -2.345,-2.889 -2.37,-2.581 -0.894,-3.684 0.692,0 2.203,-0.108 3.088,-0.28 0.795,-0.096 15.163,-12.745 17.107,-14.201 0.471,1.239 1.814,11.134 2.934,14.872 -10.334,5.732 -14.437,6.477 -15.772,9.305 -1.882,0.765 -2.589,-0.426 -4.387,1.777 5.773,7.454 4.536,5.866 4.672,10.892 -0.565,1.681 0.112,5.194 -2.815,5.678 -0.454,-2.637 -0.551,-5.072 -1.259,-5.925 -1.405,-0.181 -2.894,-0.635 -3.795,-1.231 -0.462,-0.308 -1.295,-5.087 -1.395,-6.154 -0.081,-0.378 -1.118,0.466 -1.671,0.762 V 1.361 c -1.929,0.021 -3.591,0.056 -5.056,0.065 V -9.515 c -2.413,1.832 -4.469,1.219 -6.692,1.219 -5.054,-0.876 -4.501,0.199 -6.146,-3.142 3.738,0 3.809,0.321 6.313,-0.656 0.254,-3.043 0.877,-3.885 1.367,-5.063 1.605,-0.465 3.785,-0.717 5.158,-1.209 v -0.792 c -3.813,-1.701 -5.907,-0.873 -8.726,-6.215 -1.099,-2.152 -3.366,-4.368 -1.091,-7.424 1.107,1.305 1.311,3.054 4.507,5.039 4.863,-1.934 3.937,-1.299 5.31,-0.07 V -67.7 c -2.311,-0.34 -3.561,-0.103 -6.26,-1.158 -1.552,-0.415 -2.102,-0.026 -3.178,-2.632 0.975,-0.032 3.442,0.344 4.212,0.114 1.133,-0.46 2.43,0.055 2.178,-2.016 1.09,-4.009 1.418,-2.986 3.048,-3.5 v -6.565 c -2.933,-2.684 -2.569,-3.561 -4.164,-7.108 0,-0.539 0.513,-1.901 0.78,-2.162 0.668,0.197 2.382,3.471 3.384,3.335 v -12.359 c 0.628,-0.278 4.463,-0.168 5.056,0 0.358,0 0,11.655 0,13.241 2.428,-0.421 2.504,-1.185 4.169,0.79 2.018,2.382 2.565,3.424 4.379,6.282 4.901,-0.096 5.117,-0.669 5.391,-3.48 0.055,-1.593 0.424,-2.012 1.751,-2.012 l 32.726,40.576 c 0,0 0.11,-0.03 0.07,-0.128 0,0 -12.177,-15.12 -14.209,-17.581 0.342,-1.426 2.146,-5.546 3.546,-7.111 6.283,-5.473 6.258,-13.229 7.85,-18.244 0.254,-0.793 -8.072,-3.199 -9.352,-3.926 -8.78,-5.101 -7.685,-2.634 -10.319,-13.393 -2.253,-13.403 -2.859,-16.789 -1.572,-19.369 -3.619,0.447 -16.393,0.74 -18.348,1.541 0,0.816 -1.293,5.467 -1.657,6.28 5.588,5.934 4.528,3.545 5.125,11.296 -0.34,2.392 0.356,3.601 -2.833,5.682 0.085,-1.97 0.401,-3.941 -0.767,-5.975 -0.373,0.034 -2.852,0.157 -3.805,-0.244 -1.175,-1.473 -1.241,-5.589 -1.368,-6.51 -0.242,-0.102 -0.527,-0.14 -0.822,-0.14 -3.576,6.313 -5.63,7.344 -9.301,8.006 -4.532,0.455 -4.393,1.181 -6.295,-0.827 3.958,-1.105 3.906,-1.53 5.327,-2.701 -0.785,-1.876 -1.088,-1.058 -1.186,-3.083 0.338,-2.448 -0.725,-1.542 6.756,-3.71 0.121,-0.614 0.114,-0.684 0.005,-1.037 -7.297,-0.216 -6.802,0.439 -7.511,-3.956 -2.107,-0.306 -3.172,0.154 -5.13,0.588 0.866,-3.163 0.419,-2.185 5.546,-4.287 5.269,-0.728 4.517,-1.023 9.19,1.935 3.828,-5.955 2.135,-5.837 -0.825,-8.786 0.159,-0.642 0.605,-1.3 1.102,-1.499 8.166,0.868 12.058,-2.798 25.281,-4.684 6.366,-4.643 3.872,-3.893 14.253,0.228 -1.312,6.025 2.594,6.702 5.006,12.78 -2.478,2.479 -5.101,6.76 -6.027,9.027 -0.181,1.656 -1.654,8.532 -0.723,11.887 6.248,9.2 13.429,10.42 18.914,23.077 0.187,0 0.114,0.034 0.225,-0.077 -5.91,-12.994 -13.699,-14.677 -18.945,-23.126 -0.842,-2.124 0.052,-7.405 0.667,-11.666 4.9,-11.211 18.053,-18.73 21.155,-26.334 0.004,-0.05 0.042,-0.136 0.07,-0.236 0.78,-2.905 4.714,-25.253 2.16,-31.19 -1.424,-1.086 -3.861,-1.564 -4.133,-1.148 -1.251,0.525 -2.301,5.221 -3.706,7.969 -5.075,2.157 -7.787,5.271 -11.181,2.831 2.359,-1.519 4.32,-3.308 5.074,-4.599 -1.249,-1.42 -1.287,-3.152 -1.287,-4.599 0,-0.968 5.014,-3.463 6.725,-4.199 0.161,-0.073 -0.126,-0.777 -0.313,-0.956 -0.439,-0.444 -5.642,-0.74 -6.78,-1.311 -4.535,-3.962 -6.585,-5.498 -5.508,-8.957 0,0 2.821,3.01 4.97,3.628 1.083,-1.3 2.897,-2.327 4.434,-2.713 1.319,0 4.878,4.409 5.465,4.815 0,0 0.262,-0.039 0.79,-0.565 0,-0.838 -1.711,-5.015 -1.711,-6.529 0.309,-1.368 2.72,-8.848 5.573,-8.13 -0.189,0.988 -0.814,4.518 -0.476,5.837 6.336,3.181 3.001,4.288 1.627,9.499 6.169,5.364 6.082,1.712 9.834,-0.505 0.42,0 1.233,0.532 1.458,0.759 -0.813,6.249 1.543,23.234 1.376,28.452 -0.044,2.942 0.345,2.315 1.697,3.874 0.976,1.04 1.701,7.805 1.363,9.221 0,0.396 -2.345,2.22 -2.801,2.67 -0.343,0.354 -1.725,12.187 -1.968,14.932 -0.126,13.358 -1.227,26.494 -1.414,26.879 -0.044,0.303 -1.07,2.902 -1.347,3.615 -0.05,0.104 0.063,0.167 0.118,0.104 0,0 0.603,-1.433 1.405,-3.688 0.379,-2.978 0.723,-8.412 1.114,-14.466 8.223,-13.376 17.988,-30.127 35.857,-25.269 27.119,10.816 6.086,40.625 6.086,50.567 l 15.283,7.058 c 0,0 -0.227,0.898 -0.446,1.461 -7.739,-1.124 -10.577,3.173 -15.924,1.461 0,0 -0.068,0.67 -0.068,1.152 l 21.742,9.679 c 0,0 -0.33,1.116 -0.52,1.64 -7.546,-2.089 -11.099,3.071 -20.481,-0.403 l 0.188,1.225 c 0,0 18.949,8.562 25.188,11.662 0,0 -0.204,1.212 -0.603,1.608 -8.254,-2.131 -8.947,1.999 -18.232,0.129 9.76,12.442 24.939,23.411 25.615,39.849 0.753,28.16 -39.317,29.567 -37.682,1.868 z"
         style="fill:none;stroke:#ee263a;stroke-width:0.987;stroke-linecap:butt;stroke-linejoin:miter;stroke-miterlimit:4;stroke-dasharray:none;stroke-opacity:1"
         transform="matrix(1.3333333,0,0,-1.3333333,401.24093,514.28827)"
         clip-path="url(#clipPath50)" />
      <path
         id="path51"
         d="m 0,0 c -14.64,-0.951 -11.35,0.843 -20.502,-13.996 -0.118,0 -0.05,0.073 -0.092,0.152 9.118,14.929 6.035,13.042 20.673,13.986 C 0.116,0.109 0.023,0.025 0,0 Z"
         style="fill:none;stroke:#ee263a;stroke-width:0.987;stroke-linecap:butt;stroke-linejoin:miter;stroke-miterlimit:4;stroke-dasharray:none;stroke-opacity:1"
         transform="matrix(1.3333333,0,0,-1.3333333,393.09827,544.3012)"
         clip-path="url(#clipPath52)" />
      <path
         id="path53"
         d="m 0,0 v -2.853 c 0.275,-0.099 3.115,1.328 3.426,1.67 0.071,0.442 0.025,0.851 -0.156,1.042 C 3.086,0.039 0.141,0.147 0,0"
         style="fill:#ee263a;fill-opacity:1;fill-rule:nonzero;stroke:#ee263a;stroke-width:0.987;stroke-linecap:butt;stroke-linejoin:miter;stroke-miterlimit:4;stroke-dasharray:none;stroke-opacity:1"
         transform="matrix(1.3333333,0,0,-1.3333333,324.99213,617.4588)"
         clip-path="url(#clipPath54)" />
      <path
         id="path55"
         d="M 0,0 C -0.074,0.499 -1.353,10.241 -1.571,11.981 1.318,12.304 2.074,9.721 2.269,9.201 8.746,12.644 7.908,1.498 2.549,5.398 2.349,5.343 2.251,5.241 2.235,5.08 3.348,2.84 3.886,2.521 7.071,1.761 9.6,1.18 11.152,1.741 12.624,2.941 12.547,3.14 12.425,3.381 12.425,3.381 7.231,1.579 8.03,10.06 12.908,7.42 14.121,10.101 18.042,9.701 18.28,6.28 23.957,6.22 20.471,-1.5 16.865,2.48 16.706,2.42 16.567,2.339 16.489,2.182 c 1.271,-2.301 1.514,-3.103 4.382,-3.725 2.904,-0.818 4.142,-0.157 5.449,0.645 0.046,0.116 0,0.318 -0.109,0.437 -6.616,-0.659 -1.739,9.34 2.144,3.119 1.992,1.804 3.666,1.241 4.705,0.5 C 32.1,1.879 26.727,-5.222 26.051,-6.101 20.528,-4.806 5.715,-1.362 0,0"
         style="fill:#fcd405;fill-opacity:1;fill-rule:nonzero;stroke:#ee263a;stroke-width:0.987;stroke-linecap:butt;stroke-linejoin:miter;stroke-miterlimit:4;stroke-dasharray:none;stroke-opacity:1"
         transform="matrix(1.3333333,0,0,-1.3333333,402.74213,493.01613)"
         clip-path="url(#clipPath56)" />
      <path
         id="path57"
         d="m 0,0 c -17.22,-0.08 -16.469,2.206 -29.273,-12.827 -5.308,8.225 -9.402,24.818 -8.713,35.109 C -20.422,9.679 -17.633,9.415 0,9.415 0,6.732 0.042,1.85 0,0"
         style="fill:#ffffff;fill-opacity:1;fill-rule:nonzero;stroke:#ffffff;stroke-width:0.987;stroke-linecap:butt;stroke-linejoin:miter;stroke-miterlimit:4;stroke-dasharray:none;stroke-opacity:1"
         transform="matrix(1.3333333,0,0,-1.3333333,329.336,512.49)"
         clip-path="url(#clipPath58)" />
    </g>
  </g>
</svg>
