<?xml version="1.0" encoding="utf-8"?>
<!-- Generator: Adobe Illustrator 26.0.1, SVG Export Plug-In . SVG Version: 6.00 Build 0)  -->
<svg version="1.1" xmlns="http://www.w3.org/2000/svg" xmlns:xlink="http://www.w3.org/1999/xlink" x="0px" y="0px"
	 viewBox="0 0 404.4 305.6" style="enable-background:new 0 0 404.4 305.6;" xml:space="preserve">
<style type="text/css">
	.st0{fill:#2E4F4E;}
	.st1{fill:#FFFFFF;}
	.st2{font-family:'Graphik-Medium';}
	.st3{font-size:65.6px;}
	.st4{fill:#75D0C5;}
</style>
<g id="Pille_x5F_kategorifarge">
	<path class="st0" d="M244.5,305.6H58.1C26,305.6,0,279.6,0,247.5v0c0-32.1,26-58.1,58.1-58.1h186.5c32.1,0,58.1,26,58.1,58.1v0
		C302.6,279.6,276.6,305.6,244.5,305.6z"/>
</g>
<g id="Kategorinavn">
	<text transform="matrix(1 0 0 1 43.2455 268.6282)" class="st1 st2 st3">Bedrift</text>
</g>
<g id="Logosymbol_x5F_kategorifarge">
	<path class="st4" d="M401.3,48.9c-1.7,0-3.2,1.4-3.2,3.2c0,7.8-6.3,14.2-14.2,14.2h-14.3c-1.7,0-3.2,1.4-3.2,3.2v14.3
		c0,7.8-6.3,14.2-14.2,14.2c-7.8,0-14.2-6.3-14.2-14.2V69.4c0-1.7-1.4-3.2-3.2-3.2s-3.2,1.4-3.2,3.2v14.3c0,11.3,9.2,20.5,20.5,20.5
		c11.3,0,20.5-9.2,20.5-20.5V72.5H384c11.3,0,20.5-9.2,20.5-20.5C404.4,50.3,403,48.9,401.3,48.9z"/>
</g>
<g id="Dr.Dropin_logo">
	<g>
		<path class="st0" d="M352.4,0c-11.3,0-20.5,9.2-20.5,20.5v11.1h-11.1c-11.3,0-20.5,9.2-20.5,20.5c0,1.7,1.4,3.2,3.2,3.2
			s3.2-1.4,3.2-3.2c0-7.8,6.3-14.2,14.2-14.2h14.3c1.7,0,3.2-1.4,3.2-3.2V20.5c0-7.8,6.3-14.2,14.2-14.2c7.8,0,14.2,6.3,14.2,14.2
			v14.3c0,1.7,1.4,3.2,3.2,3.2s3.2-1.4,3.2-3.2V20.5C372.8,9.2,363.7,0,352.4,0z"/>
		<path class="st0" d="M14.1,85.1H3c-1.7,0-3,1.4-3,3v46.3c0,1.7,1.4,3,3,3H14c16.7,0,26.6-9.7,26.6-26v-0.6
			C40.6,94.7,30.7,85.1,14.1,85.1z M13.8,91.3c15.9,0,19.2,10.6,19.2,19.5v0.6c0,12.8-6.8,19.8-19.2,19.8H7.4V91.3H13.8z"/>
		<path class="st0" d="M64.1,98.5c-4.3,0.9-6.7,3.2-8.3,5.5v-1.7c0-2-1.6-3.6-3.6-3.6c-2,0-3.6,1.6-3.6,3.6v31.5
			c0,2,1.6,3.6,3.6,3.6c2,0,3.6-1.6,3.6-3.6v-17.6c0-7.1,2.7-10.3,9.4-11.2c1.7-0.2,2.9-1.6,2.9-3.4c0-1-0.4-1.9-1.2-2.5
			C66.1,98.6,65.1,98.3,64.1,98.5z"/>
		<path class="st0" d="M75.2,127.4c-2.8,0-5.2,2.3-5.2,5.2c0,2.8,2.3,5.2,5.2,5.2c2.8,0,5.2-2.3,5.2-5.2
			C80.4,129.8,78.1,127.4,75.2,127.4z"/>
		<path class="st0" d="M104.6,85.1H93.5c-1.7,0-3,1.4-3,3v46.3c0,1.7,1.4,3,3,3h10.9c16.7,0,26.6-9.7,26.6-26v-0.6
			C131.1,94.7,121.1,85.1,104.6,85.1z M104.2,91.3c15.9,0,19.2,10.6,19.2,19.5v0.6c0,12.8-6.8,19.8-19.2,19.8h-6.4V91.3H104.2z"/>
		<path class="st0" d="M154.6,98.5c-4.3,0.9-6.7,3.2-8.3,5.5v-1.7c0-2-1.6-3.6-3.6-3.6c-2,0-3.6,1.6-3.6,3.6v31.5
			c0,2,1.6,3.6,3.6,3.6c2,0,3.6-1.6,3.6-3.6v-17.6c0-7.1,2.7-10.3,9.4-11.2c1.7-0.2,2.9-1.6,2.9-3.4c0-1-0.4-1.9-1.2-2.5
			C156.5,98.6,155.5,98.3,154.6,98.5z"/>
		<path class="st0" d="M180.4,98.2c-11,0-19,8.3-19,19.7v0.6c0,11.4,8,19.6,18.9,19.6c11,0,19-8.3,19-19.7v-0.6
			C199.4,106.4,191.4,98.2,180.4,98.2z M192.1,117.9v0.5c0,8.2-4.6,13.5-11.6,13.5c-7.2,0-11.6-5.2-11.6-13.5v-0.6
			c0-8.4,4.5-13.6,11.6-13.6C187.5,104.3,192.1,109.6,192.1,117.9z"/>
		<path class="st0" d="M225.9,98.2c-5,0-9.6,2.7-12.1,5.7v-1.5c0-2-1.6-3.6-3.6-3.6c-2,0-3.6,1.6-3.6,3.6v44.5c0,2,1.6,3.6,3.6,3.6
			c2,0,3.6-1.6,3.6-3.6v-14.3c2.7,3.5,7.1,5.5,12.1,5.5c10.5,0,17.6-8,17.6-19.9v-0.6C243.5,106,236.5,98.2,225.9,98.2z
			 M236.2,117.9v0.6c0,6.2-1.9,13.5-10.9,13.5c-7.6,0-11.7-4.8-11.7-13.5v-0.6c0-8.5,4.4-13.6,11.6-13.6
			C231.9,104.3,236.2,109.6,236.2,117.9z"/>
		<path class="st0" d="M254.6,98.8c-2,0-3.6,1.6-3.6,3.6v31.5c0,2,1.6,3.6,3.6,3.6c2,0,3.6-1.6,3.6-3.6v-31.5
			C258.1,100.4,256.5,98.8,254.6,98.8z"/>
		<path class="st0" d="M254.5,83.1c-2.5,0-4.5,2.1-4.5,4.5c0,2.5,2.1,4.5,4.5,4.5c2.5,0,4.5-2.1,4.5-4.5
			C259,85.2,256.9,83.1,254.5,83.1z"/>
		<path class="st0" d="M287,98.2c-5.6,0-9.3,2.4-11.4,5.1v-0.9c0-2-1.6-3.6-3.6-3.6c-2,0-3.6,1.6-3.6,3.6v31.5c0,2,1.6,3.6,3.6,3.6
			c2,0,3.6-1.6,3.6-3.6v-19.7c0-6.7,5-9.6,9.9-9.6c5.8,0,8.2,2.7,8.2,8.9v20.4c0,2,1.6,3.6,3.6,3.6c2,0,3.6-1.6,3.6-3.6v-20
			C300.7,100.9,293.2,98.2,287,98.2z"/>
	</g>
</g>
<g id="Guidelines">
</g>
</svg>
