<svg xmlns="http://www.w3.org/2000/svg" viewBox="0 0 1200 400" role="img" aria-label="Mountain contour backdrop" fill="none">
  <title>Mountain Contour Backdrop</title>
  <g stroke="currentColor" stroke-linecap="round" stroke-linejoin="round">
    <path d="M0 230 C120 210, 220 220, 320 210 S520 180, 640 195 830 220, 960 205 1080 200, 1200 215" stroke-width="1.5" opacity="0.45"/>
    <path d="M0 255 C140 235, 260 245, 360 235 S560 205, 680 220 860 245, 980 230 1090 225, 1200 240" stroke-width="1.4" opacity="0.4"/>
    <path d="M0 275 C150 255, 280 265, 380 255 S580 225, 700 240 880 265, 990 250 1100 245, 1200 260" stroke-width="1.3" opacity="0.35"/>
    <path d="M0 300 C120 290, 200 285, 270 300 320 312, 360 310, 420 295 470 280, 520 285, 570 310 610 325, 640 318, 690 300 740 278, 800 285, 870 310 930 330, 980 322, 1080 305, 1200 315" stroke-width="2.2" opacity="0.6"/>
    <path d="M0 325 C130 315, 210 312, 280 325 340 338, 380 335, 440 320 500 305, 560 312, 620 340 660 355, 700 348, 760 330 820 308, 880 315, 950 340, 1200 345" stroke-width="2" opacity="0.55"/>
    <path d="M0 350 C140 340, 240 338, 300 350 360 365, 400 360, 470 345 540 330, 610 338, 680 365 730 380, 770 372, 840 355 910 335, 980 342, 1090 360, 1200 365" stroke-width="1.8" opacity="0.5"/>
    <path d="M0 372 C160 362, 260 360, 330 372 390 388, 430 382, 505 366 580 352, 655 360, 730 388 785 398, 825 392, 900 375 975 360, 1050 368, 1150 382, 1200 388" stroke-width="1.4" opacity="0.45"/>
  </g>
</svg>
